<mxfile host="app.diagrams.net" modified="2024-03-03T01:02:36.525Z" agent="Mozilla/5.0 (Windows NT 10.0; Win64; x64; rv:123.0) Gecko/20100101 Firefox/123.0" version="23.1.1" etag="xzBE4t6Ply07uFz612KX" type="github">
  <diagram name="Page-1" id="Ss7X1OPU2H6azU8_ens7">
    <mxGraphModel>
      <root>
        <mxCell id="0" />
        <mxCell id="1" parent="0" />
      </root>
    </mxGraphModel>
  </diagram>
</mxfile>
